<svg width="31" height="39" viewBox="0 0 31 39" fill="none" xmlns="http://www.w3.org/2000/svg">
<path d="M30.6641 35.3789C30.5339 35.5091 30.4362 35.7044 30.3711 35.9648C30.3711 36.2253 30.2734 36.388 30.0781 36.4531C29.8828 37.1042 29.7201 37.5599 29.5898 37.8203C29.4596 38.0807 29.2969 38.3086 29.1016 38.5039C28.125 38.569 27.0182 38.6667 25.7812 38.7969C24.6094 38.862 23.5677 38.6016 22.6562 38.0156C21.6146 37.3646 20.8333 36.4531 20.3125 35.2812C19.7917 34.0443 19.694 32.8398 20.0195 31.668C20.4102 30.8867 20.5729 30.3984 20.5078 30.2031C20.5078 30.0078 20.5729 29.8451 20.7031 29.7148C20.8333 29.5195 20.9961 29.3242 21.1914 29.1289C21.3867 28.9336 21.5495 28.7383 21.6797 28.543C21.9401 28.2174 22.0703 28.0221 22.0703 27.957C22.0703 27.8268 22.2656 27.599 22.6562 27.2734C22.7214 27.013 22.8841 26.6875 23.1445 26.2969C23.3398 26.1667 23.5352 26.0365 23.7305 25.9062C23.9909 25.776 24.2513 25.6458 24.5117 25.5156C24.9023 25.2552 25.2279 25.2227 25.4883 25.418C25.7487 25.6133 26.0417 25.8411 26.3672 26.1016C26.3672 26.5573 26.5299 26.9479 26.8555 27.2734C26.8555 27.9896 26.6927 28.5104 26.3672 28.8359C26.3021 29.1615 26.2044 29.5195 26.0742 29.9102C26.0091 30.2357 25.9115 30.5612 25.7812 30.8867C26.0417 31.5378 26.3672 31.7982 26.7578 31.668C27.2135 31.5378 27.6042 31.4727 27.9297 31.4727C28.2552 31.6029 28.5482 31.7982 28.8086 32.0586C29.069 32.2539 29.362 32.3841 29.6875 32.4492C30.0781 32.9701 30.4036 33.2956 30.6641 33.4258C30.599 33.7513 30.5339 34.1094 30.4688 34.5C30.4036 34.8255 30.4688 35.1185 30.6641 35.3789ZM17.9688 36.9414C17.8385 37.0716 17.7083 37.2018 17.5781 37.332C17.513 37.3971 17.4479 37.5273 17.3828 37.7227C16.6016 37.918 15.8529 38.3086 15.1367 38.8945C14.2904 38.9596 13.1836 38.9922 11.8164 38.9922C10.5143 38.9922 9.50521 38.7969 8.78906 38.4062C8.52865 38.1458 8.23568 37.8529 7.91016 37.5273C7.58464 37.1367 7.38932 36.8438 7.32422 36.6484C6.60807 35.737 6.15234 34.6628 5.95703 33.4258C5.82682 32.1888 6.11979 31.1146 6.83594 30.2031C7.35677 29.1615 7.64974 28.7057 7.71484 28.8359C7.77995 28.901 8.00781 28.7383 8.39844 28.3477C8.78906 27.8919 8.98438 27.599 8.98438 27.4688C8.98438 27.3385 9.04948 27.2083 9.17969 27.0781C9.24479 26.9479 9.47266 26.6875 9.86328 26.2969C10.319 25.8411 10.612 25.5807 10.7422 25.5156C11.3932 25.3854 11.9792 25.5482 12.5 26.0039C13.0208 26.3945 13.2812 26.9154 13.2812 27.5664C13.3464 27.8919 13.2812 28.1849 13.0859 28.4453C12.8906 28.7057 12.8255 29.0638 12.8906 29.5195C12.8906 29.6497 12.7604 29.7799 12.5 29.9102C12.2396 30.0404 12.1094 30.3659 12.1094 30.8867C11.7839 31.082 11.5234 31.3424 11.3281 31.668C11.5234 31.7982 11.7188 31.8307 11.9141 31.7656C12.1745 31.6354 12.4023 31.5703 12.5977 31.5703C13.0534 31.5052 13.5417 31.5052 14.0625 31.5703C14.5833 31.6354 15.0391 31.5703 15.4297 31.375C15.625 31.5703 15.8529 31.7331 16.1133 31.8633C16.3737 31.9284 16.6341 32.0911 16.8945 32.3516C17.2852 32.8724 17.513 33.1654 17.5781 33.2305C17.7083 33.2956 17.8385 33.3932 17.9688 33.5234C18.099 33.9141 18.099 34.3047 17.9688 34.6953C17.8385 35.0208 17.7734 35.3789 17.7734 35.7695C17.8385 35.9648 17.8711 36.1602 17.8711 36.3555C17.8711 36.5508 17.9036 36.7461 17.9688 36.9414Z" fill="#197081"/>
</svg>
