<svg width="32" height="39" viewBox="0 0 32 39" fill="none" xmlns="http://www.w3.org/2000/svg">
<path d="M0.933594 35.3789C1.0638 35.5091 1.16146 35.7044 1.22656 35.9648C1.22656 36.2253 1.32422 36.388 1.51953 36.4531C1.71484 37.1042 1.8776 37.5599 2.00781 37.8203C2.13802 38.0807 2.30078 38.3086 2.49609 38.5039C3.47266 38.569 4.57943 38.6667 5.81641 38.7969C6.98828 38.862 8.02995 38.6016 8.94141 38.0156C9.98307 37.3646 10.7643 36.4531 11.2852 35.2812C11.806 34.0443 11.9036 32.8398 11.5781 31.668C11.1875 30.8867 11.0247 30.3984 11.0898 30.2031C11.0898 30.0078 11.0247 29.8451 10.8945 29.7148C10.7643 29.5195 10.6016 29.3242 10.4062 29.1289C10.2109 28.9336 10.0482 28.7383 9.91797 28.543C9.65755 28.2174 9.52734 28.0221 9.52734 27.957C9.52734 27.8268 9.33203 27.599 8.94141 27.2734C8.8763 27.013 8.71354 26.6875 8.45312 26.2969C8.25781 26.1667 8.0625 26.0365 7.86719 25.9062C7.60677 25.776 7.34635 25.6458 7.08594 25.5156C6.69531 25.2552 6.36979 25.2227 6.10938 25.418C5.84896 25.6133 5.55599 25.8411 5.23047 26.1016C5.23047 26.5573 5.06771 26.9479 4.74219 27.2734C4.74219 27.9896 4.90495 28.5104 5.23047 28.8359C5.29557 29.1615 5.39323 29.5195 5.52344 29.9102C5.58854 30.2357 5.6862 30.5612 5.81641 30.8867C5.55599 31.5378 5.23047 31.7982 4.83984 31.668C4.38411 31.5378 3.99349 31.4727 3.66797 31.4727C3.34245 31.6029 3.04948 31.7982 2.78906 32.0586C2.52865 32.2539 2.23568 32.3841 1.91016 32.4492C1.51953 32.9701 1.19401 33.2956 0.933594 33.4258C0.998698 33.7513 1.0638 34.1094 1.12891 34.5C1.19401 34.8255 1.12891 35.1185 0.933594 35.3789ZM13.6289 36.9414C13.7591 37.0716 13.8893 37.2018 14.0195 37.332C14.0846 37.3971 14.1497 37.5273 14.2148 37.7227C14.9961 37.918 15.7448 38.3086 16.4609 38.8945C17.3073 38.9596 18.4141 38.9922 19.7812 38.9922C21.0833 38.9922 22.0924 38.7969 22.8086 38.4062C23.069 38.1458 23.362 37.8529 23.6875 37.5273C24.013 37.1367 24.2083 36.8438 24.2734 36.6484C24.9896 35.737 25.4453 34.6628 25.6406 33.4258C25.7708 32.1888 25.4779 31.1146 24.7617 30.2031C24.2409 29.1615 23.9479 28.7057 23.8828 28.8359C23.8177 28.901 23.5898 28.7383 23.1992 28.3477C22.8086 27.8919 22.6133 27.599 22.6133 27.4688C22.6133 27.3385 22.5482 27.2083 22.418 27.0781C22.3529 26.9479 22.125 26.6875 21.7344 26.2969C21.2786 25.8411 20.9857 25.5807 20.8555 25.5156C20.2044 25.3854 19.6185 25.5482 19.0977 26.0039C18.5768 26.3945 18.3164 26.9154 18.3164 27.5664C18.2513 27.8919 18.3164 28.1849 18.5117 28.4453C18.707 28.7057 18.7721 29.0638 18.707 29.5195C18.707 29.6497 18.8372 29.7799 19.0977 29.9102C19.3581 30.0404 19.4883 30.3659 19.4883 30.8867C19.8138 31.082 20.0742 31.3424 20.2695 31.668C20.0742 31.7982 19.8789 31.8307 19.6836 31.7656C19.4232 31.6354 19.1953 31.5703 19 31.5703C18.5443 31.5052 18.056 31.5052 17.5352 31.5703C17.0143 31.6354 16.5586 31.5703 16.168 31.375C15.9727 31.5703 15.7448 31.7331 15.4844 31.8633C15.224 31.9284 14.9635 32.0911 14.7031 32.3516C14.3125 32.8724 14.0846 33.1654 14.0195 33.2305C13.8893 33.2956 13.7591 33.3932 13.6289 33.5234C13.4987 33.9141 13.4987 34.3047 13.6289 34.6953C13.7591 35.0208 13.8242 35.3789 13.8242 35.7695C13.7591 35.9648 13.7266 36.1602 13.7266 36.3555C13.7266 36.5508 13.694 36.7461 13.6289 36.9414Z" fill="#197081"/>
</svg>
