<svg width="163" height="163" viewBox="0 0 163 163" fill="none" xmlns="http://www.w3.org/2000/svg">
<rect opacity="0.1" x="81.0039" y="2.82843" width="110.557" height="110.557" rx="13" transform="rotate(45 81.0039 2.82843)" stroke="url(#paint0_linear)" stroke-width="4"/>
<path d="M90.625 100.5V82.625H92C95.0333 82.625 97.5 80.1582 97.5 77.125V66.125C97.5 59.0726 93.045 53.057 86.8067 50.7002C89.9183 48.7546 92 45.3075 92 41.375C92 35.3099 87.0652 30.375 81 30.375C74.9349 30.375 70 35.3099 70 41.375C70 45.3075 72.0818 48.7546 75.1934 50.7002C68.955 53.057 64.5 59.0726 64.5 66.125V77.125C64.5 80.1582 66.9668 82.625 70 82.625H71.375V100.5C71.375 103.533 73.8418 106 76.875 106C78.5264 106 79.9908 105.255 81 104.1C82.0093 105.255 83.4737 106 85.125 106C88.1583 106 90.625 103.533 90.625 100.5ZM82.3462 64.376L81 66.3959L79.6539 64.3746L80.4473 52.4025C80.6315 52.3956 80.813 52.375 81 52.375C81.187 52.375 81.3685 52.3956 81.5542 52.4025L82.3462 64.376ZM72.75 41.375C72.75 36.8251 76.4502 33.125 81 33.125C85.5499 33.125 89.25 36.8251 89.25 41.375C89.25 45.9249 85.5499 49.625 81 49.625C76.4502 49.625 72.75 45.9249 72.75 41.375ZM87.875 100.5C87.875 102.017 86.6417 103.25 85.125 103.25C83.6084 103.25 82.375 102.017 82.375 100.5V75.75H79.625V100.5C79.625 102.017 78.3917 103.25 76.875 103.25C75.3584 103.25 74.125 102.017 74.125 100.5V60.625H71.375V79.875H70C68.4834 79.875 67.25 78.6416 67.25 77.125V66.125C67.25 59.6955 71.6913 54.2986 77.6629 52.8012L76.8462 65.124L81 71.3541L85.1539 65.1254L84.3372 52.8026C90.3088 54.2986 94.75 59.6955 94.75 66.125V77.125C94.75 78.6416 93.5167 79.875 92 79.875H90.625V60.625H87.875V100.5Z" fill="#9ED000"/>
<path d="M115.305 86.0708C117.029 84.5583 118.125 82.3445 118.125 79.875C118.125 75.3251 114.425 71.625 109.875 71.625C105.325 71.625 101.625 75.3251 101.625 79.875C101.625 82.3431 102.72 84.5555 104.444 86.0694C103.078 86.5438 101.801 87.2574 100.667 88.1855C96.5678 88.6626 93.375 92.151 93.375 96.375C93.375 98.8445 94.4709 101.058 96.1952 102.571C91.3607 104.255 87.875 108.848 87.875 114.25V115.625H115.375V114.25C115.375 108.848 111.889 104.255 107.055 102.571C108.105 101.649 108.917 100.467 109.394 99.125H123.625V97.75C123.625 92.3476 120.139 87.7551 115.305 86.0708ZM109.875 74.375C112.908 74.375 115.375 76.8417 115.375 79.875C115.375 82.9082 112.908 85.375 109.875 85.375C106.842 85.375 104.375 82.9082 104.375 79.875C104.375 76.8417 106.842 74.375 109.875 74.375ZM103 104.625C107.841 104.625 111.858 108.216 112.527 112.875H90.7227C91.3909 108.216 95.4087 104.625 100.25 104.625H103ZM101.625 101.875C98.5918 101.875 96.125 99.4083 96.125 96.375C96.125 93.3417 98.5918 90.875 101.625 90.875C104.658 90.875 107.125 93.3417 107.125 96.375C107.125 99.4083 104.658 101.875 101.625 101.875ZM109.875 96.375C109.875 92.9994 107.836 90.0954 104.926 88.8194C106.054 88.3684 107.264 88.125 108.5 88.125H111.25C116.091 88.125 120.108 91.7165 120.777 96.375H109.875Z" fill="#197081"/>
<path d="M65.8049 102.571C67.5292 101.058 68.625 98.8445 68.625 96.375C68.625 92.1496 65.4323 88.6626 61.3334 88.1855C60.2004 87.256 58.923 86.5424 57.5563 86.0694C59.2805 84.5555 60.375 82.3431 60.375 79.875C60.375 75.3251 56.6749 71.625 52.125 71.625C47.5752 71.625 43.875 75.3251 43.875 79.875C43.875 82.3445 44.9709 84.5583 46.6952 86.0708C41.8607 87.7551 38.375 92.3476 38.375 97.75V99.125H52.6063C53.0834 100.467 53.8947 101.649 54.9452 102.571C50.1107 104.255 46.625 108.848 46.625 114.25V115.625H74.125V114.25C74.125 108.848 70.6394 104.255 65.8049 102.571ZM52.125 74.375C55.1583 74.375 57.625 76.8417 57.625 79.875C57.625 82.9082 55.1583 85.375 52.125 85.375C49.0918 85.375 46.625 82.9082 46.625 79.875C46.625 76.8417 49.0918 74.375 52.125 74.375ZM52.125 96.375H41.2227C41.8909 91.7165 45.9087 88.125 50.75 88.125H53.5C54.7375 88.125 55.9475 88.3684 57.075 88.8194C54.1642 90.0954 52.125 92.9994 52.125 96.375ZM60.375 90.875C63.4083 90.875 65.875 93.3417 65.875 96.375C65.875 99.4083 63.4083 101.875 60.375 101.875C57.3418 101.875 54.875 99.4083 54.875 96.375C54.875 93.3417 57.3418 90.875 60.375 90.875ZM49.4727 112.875C50.1409 108.216 54.1587 104.625 59 104.625H61.75C66.5914 104.625 70.6078 108.216 71.2774 112.875H49.4727Z" fill="#197081"/>
<path d="M119.5 37.25C119.5 33.4591 116.416 30.375 112.625 30.375H101.625C97.8342 30.375 94.75 33.4591 94.75 37.25V44.125H112.625C116.416 44.125 119.5 41.0409 119.5 37.25ZM97.5 37.25C97.5 34.9757 99.3508 33.125 101.625 33.125H112.625C114.899 33.125 116.75 34.9757 116.75 37.25C116.75 39.5243 114.899 41.375 112.625 41.375H97.5V37.25Z" fill="#197081"/>
<path d="M100.25 35.875H103V38.625H100.25V35.875Z" fill="#197081"/>
<path d="M105.75 35.875H108.5V38.625H105.75V35.875Z" fill="#197081"/>
<path d="M111.25 35.875H114V38.625H111.25V35.875Z" fill="#197081"/>
<path d="M49.375 44.125H67.25V37.25C67.25 33.4591 64.1659 30.375 60.375 30.375H49.375C45.5842 30.375 42.5 33.4591 42.5 37.25C42.5 41.0409 45.5842 44.125 49.375 44.125ZM49.375 33.125H60.375C62.6493 33.125 64.5 34.9757 64.5 37.25V41.375H49.375C47.1008 41.375 45.25 39.5243 45.25 37.25C45.25 34.9757 47.1008 33.125 49.375 33.125Z" fill="#197081"/>
<path d="M59 35.875H61.75V38.625H59V35.875Z" fill="#197081"/>
<path d="M53.5 35.875H56.25V38.625H53.5V35.875Z" fill="#197081"/>
<path d="M48 35.875H50.75V38.625H48V35.875Z" fill="#197081"/>
<path d="M105.75 46.875C101.959 46.875 98.875 49.9591 98.875 53.75V60.625H116.75C120.541 60.625 123.625 57.5409 123.625 53.75C123.625 49.9591 120.541 46.875 116.75 46.875H105.75ZM120.875 53.75C120.875 56.0243 119.024 57.875 116.75 57.875H101.625V53.75C101.625 51.4757 103.476 49.625 105.75 49.625H116.75C119.024 49.625 120.875 51.4757 120.875 53.75Z" fill="#197081"/>
<path d="M104.375 52.375H107.125V55.125H104.375V52.375Z" fill="#197081"/>
<path d="M109.875 52.375H112.625V55.125H109.875V52.375Z" fill="#197081"/>
<path d="M115.375 52.375H118.125V55.125H115.375V52.375Z" fill="#197081"/>
<path d="M45.25 60.625H63.125V53.75C63.125 49.9591 60.0409 46.875 56.25 46.875H45.25C41.4592 46.875 38.375 49.9591 38.375 53.75C38.375 57.5409 41.4592 60.625 45.25 60.625ZM45.25 49.625H56.25C58.5243 49.625 60.375 51.4757 60.375 53.75V57.875H45.25C42.9758 57.875 41.125 56.0243 41.125 53.75C41.125 51.4757 42.9758 49.625 45.25 49.625Z" fill="#197081"/>
<path d="M54.875 52.375H57.625V55.125H54.875V52.375Z" fill="#197081"/>
<path d="M49.375 52.375H52.125V55.125H49.375V52.375Z" fill="#197081"/>
<path d="M43.875 52.375H46.625V55.125H43.875V52.375Z" fill="#197081"/>
<defs>
<linearGradient id="paint0_linear" x1="85.2466" y1="3.53829" x2="192.02" y2="110.311" gradientUnits="userSpaceOnUse">
<stop stop-color="#1D1D54"/>
<stop offset="1" stop-color="#1D1D54" stop-opacity="0"/>
</linearGradient>
</defs>
</svg>
