<svg width="66" height="65" viewBox="0 0 66 65" fill="none" xmlns="http://www.w3.org/2000/svg">
<rect x="33" width="45.6096" height="45.6096" rx="15" transform="rotate(45 33 0)" fill="#C2FF01"/>
<path d="M19.725 37.123C19.725 38.523 20.825 39.648 22.2 39.648C23.575 39.648 24.7 38.523 24.7 37.123C24.7 35.748 23.575 34.648 22.2 34.648C20.825 34.648 19.725 35.748 19.725 37.123ZM30.9209 27.398C32.8709 23.823 36.7959 26.373 34.4209 29.048L27.2209 37.148L28.3459 39.473H39.7459V35.223H35.7459L33.6709 35.648L37.5709 31.948C39.1709 30.448 39.7709 28.648 39.7709 26.998C39.7709 24.223 37.7459 21.548 33.8459 21.548C31.4209 21.548 29.0209 22.798 27.5709 25.573L30.9209 27.398Z" fill="black"/>
</svg>
