<svg width="66" height="65" viewBox="0 0 66 65" fill="none" xmlns="http://www.w3.org/2000/svg">
<rect x="33" width="45.6096" height="45.6096" rx="15" transform="rotate(45 33 0)" fill="#C2FF01"/>
<path d="M19.725 37.123C19.725 38.523 20.825 39.648 22.2 39.648C23.575 39.648 24.7 38.523 24.7 37.123C24.7 35.748 23.575 34.648 22.2 34.648C20.825 34.648 19.725 35.748 19.725 37.123ZM39.9959 24.823C38.9209 22.598 36.7459 21.548 34.4209 21.548C31.1459 21.548 27.8209 23.573 27.8209 27.123V34.173C27.8209 37.848 31.0709 39.748 34.3709 39.748C37.6709 39.748 40.8209 37.823 40.8209 34.173V33.123C40.8209 28.723 35.4959 26.548 32.0959 28.973V27.148C32.0959 26.023 33.2209 25.373 34.4209 25.373C35.3459 25.373 36.3209 25.748 36.8709 26.623L39.9959 24.823ZM36.5459 34.323C36.5459 36.348 32.0959 36.323 32.0959 34.323V32.998C32.0959 31.148 36.5459 31.123 36.5459 32.998V34.323Z" fill="black"/>
</svg>
