<svg width="66" height="65" viewBox="0 0 66 65" fill="none" xmlns="http://www.w3.org/2000/svg">
<rect x="33" width="45.6096" height="45.6096" rx="15" transform="rotate(45 33 0)" fill="#C2FF01"/>
<path d="M19.725 37.123C19.725 38.523 20.825 39.648 22.2 39.648C23.575 39.648 24.7 38.523 24.7 37.123C24.7 35.748 23.575 34.648 22.2 34.648C20.825 34.648 19.725 35.748 19.725 37.123ZM27.1959 36.548C28.5209 38.773 30.8459 39.748 33.1209 39.748C36.3709 39.748 39.5459 37.648 39.5459 34.198C39.5459 32.823 38.9709 30.973 37.1709 30.048C38.9709 28.923 39.1209 26.398 38.4209 24.648C37.4709 22.298 35.2709 21.548 33.0959 21.548C31.0959 21.548 28.9709 22.623 27.5209 24.423L30.1209 26.723C31.2209 25.473 33.3959 25.148 34.1959 26.398C34.6959 27.148 34.2959 28.573 33.1459 28.573H30.4959V32.148H33.2459C34.5209 32.148 35.1709 32.948 35.1709 33.848C35.1709 34.798 34.1459 35.373 32.9459 35.373C31.8959 35.373 30.7459 34.923 30.0959 33.873L27.1959 36.548Z" fill="black"/>
</svg>
