<svg width="65" height="65" viewBox="0 0 65 65" fill="none" xmlns="http://www.w3.org/2000/svg">
<rect x="32.251" width="45.6096" height="45.6096" rx="15" transform="rotate(45 32.251 0)" fill="#C2FF01"/>
<path d="M18.725 37.123C18.725 38.523 19.825 39.648 21.2 39.648C22.575 39.648 23.7 38.523 23.7 37.123C23.7 35.748 22.575 34.648 21.2 34.648C19.825 34.648 18.725 35.748 18.725 37.123ZM26.4959 36.473C27.9209 38.798 30.0459 39.748 32.0459 39.748C36.6709 39.748 38.7209 36.448 38.7209 33.173C38.7209 28.898 34.9709 26.148 30.6709 27.723V25.723H37.5959V21.798H27.0959V32.123H29.1459C29.9459 31.048 30.9959 30.648 32.0209 30.648C33.3709 30.648 34.4459 31.473 34.3459 33.273C34.2459 35.348 31.3459 36.023 29.6709 33.973L26.4959 36.473Z" fill="black"/>
</svg>
