<svg width="21" height="21" viewBox="0 0 21 21" fill="none" xmlns="http://www.w3.org/2000/svg">
<g clip-path="url(#clip0)">
<path d="M13.0423 5.15708C13.071 5.12472 13.2054 5.01898 13.7331 5.01898L15.4631 5.01834C16.0259 5.01834 16.4836 4.5614 16.4836 3.99967V0.981814C16.4836 0.421052 16.0266 -0.0358887 15.4647 -0.03685L12.8949 -0.0410156C11.3089 -0.0410156 9.9606 0.481134 8.99581 1.4692C8.03535 2.45277 7.52759 3.82584 7.52759 5.43971V7.06736H5.56173C4.99891 7.06736 4.54108 7.5243 4.54108 8.08602V11.3362C4.54108 11.8979 4.99891 12.3549 5.56173 12.3549H7.52759V19.9404C7.52759 20.5021 7.98543 20.959 8.54825 20.959H11.9178C12.4806 20.959 12.9384 20.5021 12.9384 19.9404V12.355H15.3414C15.9043 12.355 16.3619 11.8979 16.3619 11.3365L16.3632 8.08618C16.3632 7.7172 16.1621 7.37578 15.8381 7.19521C15.688 7.11158 15.5134 7.06736 15.3332 7.06736H12.9384V5.78145C12.9384 5.36232 12.995 5.2106 13.0423 5.15708Z" fill="white"/>
</g>
<defs>
<clipPath id="clip0">
<rect width="21" height="21" fill="white"/>
</clipPath>
</defs>
</svg>
