<svg width="251" height="251" viewBox="0 0 251 251" fill="none" xmlns="http://www.w3.org/2000/svg">
<rect y="125.309" width="177.214" height="176.848" rx="34" transform="rotate(-45 0 125.309)" fill="#C2FF01"/>
<path d="M149.664 108.865C148.569 105.884 145.758 103.906 142.614 103.906C139.328 103.906 136.423 106.064 135.438 109.234L130.546 124.981C131.344 126.929 132.303 128.375 133.726 128.375C138.093 128.375 138.093 114.781 142.459 114.781C146.829 114.781 146.829 128.375 151.199 128.375C153 128.375 154.057 126.068 154.986 123.355L149.664 108.865Z" fill="#075E6F"/>
<path d="M107.531 95.7502C107.531 91.7496 110.381 88.4286 114.137 87.734L114.141 87.7286C113.571 84.5599 110.829 82.1565 107.531 82.1565C106.932 82.1565 106.364 82.2612 105.81 82.4093C104.777 79.1101 101.728 76.719 98.125 76.719C93.6718 76.719 90.0625 80.3703 90.0625 84.8752C90.0625 85.3388 90.1001 85.7942 90.174 86.236L90.1848 86.2469C90.1431 86.2455 90.1042 86.2346 90.0625 86.2346C87.0942 86.2346 84.6875 88.6693 84.6875 91.6721C84.6875 94.675 87.0942 97.1096 90.0625 97.1096H107.644L107.651 97.1001C107.578 96.6597 107.531 96.2111 107.531 95.7502Z" fill="url(#paint0_linear)"/>
<path d="M150.924 108.392C149.781 105.281 147.008 103.088 143.812 102.641V93.9885L165.146 86.2808L144.062 78.0784H141.125V102.676C137.877 103.228 135.172 105.559 134.156 108.826L127.395 130.591C126.971 129.161 126.101 127.887 124.874 127.001L118.441 122.353L120.703 112.063H124.567C128.66 112.063 132.344 109.764 134.178 106.061L139.289 95.7475C139.612 95.0991 139.781 94.3718 139.781 93.6459C139.781 91.0577 137.701 88.9534 135.098 88.9534C133.331 88.9534 131.74 89.9471 130.95 91.5471L126.627 100.293C125.941 101.684 124.559 102.547 123.022 102.547H122.165C123.912 100.818 125 98.4119 125 95.7502C125 90.5031 120.781 86.2346 115.594 86.2346C110.407 86.2346 106.188 90.5031 106.188 95.7502C106.188 98.4119 107.276 100.818 109.023 102.547H108.321C103.226 102.547 98.4032 105.274 95.7331 109.663L89.3839 120.101C88.9485 120.814 88.7188 121.637 88.7188 122.478C88.7188 123.125 88.8585 123.74 89.1017 124.297H83.3438V143.328H100.364L98.2876 152.003C98.1801 152.455 98.125 152.919 98.125 153.381V153.778C98.125 157.01 100.725 159.641 103.919 159.641C106.643 159.641 109.028 157.683 109.59 154.986L113.977 133.904L116.938 135.899V148.766C116.938 151.765 119.348 154.203 122.312 154.203H166.656V151.24L150.924 108.392ZM143.812 80.8936L157.417 86.187L143.812 91.1025V80.8936ZM108.875 95.7502C108.875 92.0024 111.889 88.9534 115.594 88.9534C119.298 88.9534 122.312 92.0024 122.312 95.7502C122.312 99.498 119.298 102.547 115.594 102.547C111.889 102.547 108.875 99.498 108.875 95.7502ZM103.562 124.297H97.8858L104.535 113.727C104.861 113.207 105.305 112.791 105.818 112.506L103.562 124.297ZM104.013 127.016L103.96 127.126C102.335 130.412 99.0697 132.453 95.4375 132.453C91.8053 132.453 88.54 130.412 86.9168 127.126L86.8617 127.016H93.2042H93.7121H104.013ZM86.0312 130.662C88.3183 133.482 91.718 135.172 95.4375 135.172C99.157 135.172 102.557 133.482 104.844 130.662V140.61H86.0312V130.662ZM119.625 148.766V135.899C119.625 134.989 119.178 134.143 118.428 133.637L114.657 131.094H111.816L106.962 154.426C106.659 155.873 105.38 156.922 103.919 156.922C102.207 156.922 100.812 155.511 100.812 153.779V153.382C100.812 153.134 100.842 152.885 100.9 152.643L103.129 143.328H107.531V124.297H106.299L109.16 109.344H107.531C105.387 109.344 103.418 110.437 102.268 112.267L95.2306 123.454C94.8973 123.983 94.3302 124.297 93.7121 124.297H93.2042C92.2138 124.297 91.4062 123.48 91.4062 122.478C91.4062 122.141 91.4976 121.812 91.6723 121.525L98.0215 111.088C100.206 107.497 104.153 105.266 108.321 105.266H123.022C125.583 105.266 127.886 103.826 129.031 101.509L133.354 92.7623C133.686 92.0908 134.355 91.6721 135.143 91.6721C136.218 91.6721 137.094 92.5571 137.094 93.6459C137.094 93.9518 137.023 94.2577 136.887 94.5295L131.775 104.843C130.401 107.619 127.638 109.344 124.569 109.344H118.547L115.432 123.521L123.312 129.214C124.368 129.978 125 131.219 125 132.534V148.766C125 150.265 123.795 151.485 122.312 151.485C120.83 151.485 119.625 150.265 119.625 148.766ZM126.94 151.485C127.403 150.681 127.688 149.761 127.688 148.766V138.717L136.72 109.64C137.535 107.024 139.902 105.266 142.614 105.266C145.183 105.266 147.51 106.903 148.405 109.34L163.879 151.485H126.94Z" fill="#197081"/>
<path d="M157.25 146.047H159.938V148.766H157.25V146.047Z" fill="#197081"/>
<path d="M151.875 146.047H154.562V148.766H151.875V146.047Z" fill="#197081"/>
<path d="M146.5 146.047H149.188V148.766H146.5V146.047Z" fill="#197081"/>
<defs>
<linearGradient id="paint0_linear" x1="90.4417" y1="79.8714" x2="99.5778" y2="97.0225" gradientUnits="userSpaceOnUse">
<stop stop-color="white"/>
<stop offset="1" stop-color="white" stop-opacity="0"/>
</linearGradient>
</defs>
</svg>
