<svg width="163" height="163" viewBox="0 0 163 163" fill="none" xmlns="http://www.w3.org/2000/svg">
<rect opacity="0.1" x="81.0039" y="2.82843" width="110.557" height="110.557" rx="13" transform="rotate(45 81.0039 2.82843)" stroke="url(#paint0_linear)" stroke-width="4"/>
<g clip-path="url(#clip0)">
<path d="M55.9836 30.1289H71.3062V33.1934H55.9836V30.1289Z" fill="#197081"/>
<path d="M60.5804 42.387H57.5159V59.2418H54.4514V46.9837H51.3868V59.2418H48.3223V51.5805H45.2578V59.2418H42.1933V62.3063H63.6449V59.2418H60.5804V42.387Z" fill="#9ED000"/>
<path d="M42.1933 65.371H45.2578V68.4355H42.1933V65.371Z" fill="#9ED000"/>
<path d="M48.3223 65.371H63.6448V68.4355H48.3223V65.371Z" fill="#9ED000"/>
<path d="M123.403 86.8226C125.937 86.8226 128 84.7599 128 82.2258V58.6322C128 55.6013 125.737 52.9932 122.738 52.5645L117.274 51.7841V49.2209C119.15 47.5368 120.339 45.1022 120.339 42.3871V39.3226C120.339 34.2522 116.216 30.129 111.145 30.129C106.075 30.129 101.952 34.2522 101.952 39.3226V42.3871C101.952 45.1007 103.14 47.5353 105.016 49.2209V51.7841L96.4293 53.0119L91.1555 46.9839H91.2258V39.3226H94.2903V30.129H78.0699L71.9409 24H55.3494L49.2204 30.129H33V39.3226H36.0645V76.0968H33V85.2903H48.3226V89.5991L38.0808 115.935H33V119H128V115.935H121.871V86.5405C122.352 86.7126 122.864 86.8226 123.403 86.8226ZM112.596 67.8826L111.145 69.3333L109.694 67.8826L110.967 57.6992C111.027 57.7007 111.084 57.7097 111.145 57.7097C111.207 57.7097 111.263 57.7007 111.323 57.6992L112.596 67.8826ZM105.016 39.3226C105.016 35.9423 107.765 33.1935 111.145 33.1935C114.525 33.1935 117.274 35.9423 117.274 39.3226V42.3871C117.274 45.7673 114.525 48.5161 111.145 48.5161C107.765 48.5161 105.016 45.7673 105.016 42.3871V39.3226ZM111.145 51.5806C112.221 51.5806 113.249 51.3846 114.21 51.0442V52.6917C113.83 53.2782 112.774 54.6452 111.145 54.6452C109.513 54.6452 108.456 53.2723 108.081 52.6917V51.0442C109.041 51.3846 110.069 51.5806 111.145 51.5806ZM105.793 54.7679C106.257 55.3941 106.987 56.2036 107.989 56.8134L106.467 68.9884L111.145 73.6667L115.823 68.9884L114.302 56.8134C115.305 56.2021 116.034 55.3941 116.498 54.7679L122.305 55.5968C123.805 55.8116 124.935 57.1164 124.935 58.6307V82.2258C124.935 83.0697 124.247 83.7581 123.403 83.7581C122.559 83.7581 121.871 83.0697 121.871 82.2258V60.7742H118.806V76.0968H103.484V60.7742H94.2305C93.7629 60.7742 93.3267 60.564 93.0341 60.1996L82.3891 46.8933C82.1594 46.6053 82.0323 46.2439 82.0323 45.8743V45.5481C82.0323 44.6503 82.7632 43.9194 83.661 43.9194C84.1316 43.9194 84.579 44.1214 84.888 44.4752L95.2158 56.2784L105.793 54.7679ZM59.0484 91.4194V115.935H47.4981L57.0321 91.4194H59.0484ZM62.1129 91.4194H65.1774V115.935H62.1129V91.4194ZM68.2419 91.4194H70.2583L79.7922 115.935H68.2419V91.4194ZM73.5465 91.4194H76.3873L85.9213 115.935H83.0804L73.5465 91.4194ZM78.9677 89.5991V85.2903H94.2903V76.0968H91.2258V62.697C92.0563 63.4205 93.1075 63.8387 94.2305 63.8387H100.419V115.935H89.2095L78.9677 89.5991ZM103.484 79.1613H109.613V115.935H103.484V79.1613ZM36.0645 33.1935H50.4893L56.6183 27.0645H70.672L76.801 33.1935H91.2258V36.2581H36.0645V33.1935ZM39.129 39.3226H88.1613V43.5625L87.1946 42.4574C86.3028 41.4384 85.0152 40.8548 83.661 40.8548C81.0746 40.8548 78.9677 42.9617 78.9677 45.5481V45.8743C78.9677 46.9345 79.3321 47.9767 79.9957 48.8072L88.1613 59.0137V76.0968H39.129V39.3226ZM36.0645 79.1613H91.2258V82.2258H36.0645V79.1613ZM75.9032 85.2903V88.3548H51.3871V85.2903H75.9032ZM50.903 91.4194H53.7438L44.2099 115.935H41.3691L50.903 91.4194ZM112.677 115.935V79.1613H118.806V115.935H112.677Z" fill="#197081"/>
<path d="M75.9033 54.6453C70.8329 54.6453 66.7097 58.7684 66.7097 63.8388C66.7097 68.9092 70.8329 73.0323 75.9033 73.0323C80.9736 73.0323 85.0968 68.9092 85.0968 63.8388C85.0968 58.7684 80.9736 54.6453 75.9033 54.6453ZM74.371 57.9275V62.3065H69.992C70.5493 60.163 72.2275 58.4849 74.371 57.9275ZM69.992 65.3711H74.371V69.7501C72.2275 69.1927 70.5493 67.5146 69.992 65.3711ZM77.4355 69.7501V57.9275C80.0713 58.6121 82.0323 60.992 82.0323 63.8388C82.0323 66.6856 80.0713 69.0655 77.4355 69.7501Z" fill="#9ED000"/>
</g>
<defs>
<linearGradient id="paint0_linear" x1="85.2466" y1="3.53829" x2="192.02" y2="110.311" gradientUnits="userSpaceOnUse">
<stop stop-color="#1D1D54"/>
<stop offset="1" stop-color="#1D1D54" stop-opacity="0"/>
</linearGradient>
<clipPath id="clip0">
<rect width="95" height="95" fill="white" transform="translate(33 24)"/>
</clipPath>
</defs>
</svg>
