<svg width="163" height="163" viewBox="0 0 163 163" fill="none" xmlns="http://www.w3.org/2000/svg">
<rect opacity="0.1" x="81.0039" y="2.82843" width="110.557" height="110.557" rx="13" transform="rotate(45 81.0039 2.82843)" stroke="url(#paint0_linear)" stroke-width="4"/>
<g clip-path="url(#clip0)">
<path d="M91.9375 110.25V89.9375H93.5C96.9469 89.9375 99.75 87.1344 99.75 83.6875V71.1875C99.75 63.1734 94.6875 56.3375 87.5985 53.6594C91.1344 51.4484 93.5 47.5312 93.5 43.0625C93.5 36.1703 87.8922 30.5625 81 30.5625C74.1078 30.5625 68.5 36.1703 68.5 43.0625C68.5 47.5312 70.8657 51.4484 74.4016 53.6594C67.3125 56.3375 62.25 63.1734 62.25 71.1875V83.6875C62.25 87.1344 65.0532 89.9375 68.5 89.9375H70.0625V110.25C70.0625 113.697 72.8657 116.5 76.3125 116.5C78.1891 116.5 79.8532 115.653 81 114.341C82.1469 115.653 83.811 116.5 85.6875 116.5C89.1344 116.5 91.9375 113.697 91.9375 110.25ZM82.5297 69.2L81 71.4953L79.4703 69.1984L80.3719 55.5938C80.5813 55.5859 80.7875 55.5625 81 55.5625C81.2125 55.5625 81.4188 55.5859 81.6297 55.5938L82.5297 69.2ZM71.625 43.0625C71.625 37.8922 75.8297 33.6875 81 33.6875C86.1703 33.6875 90.375 37.8922 90.375 43.0625C90.375 48.2328 86.1703 52.4375 81 52.4375C75.8297 52.4375 71.625 48.2328 71.625 43.0625ZM88.8125 110.25C88.8125 111.973 87.411 113.375 85.6875 113.375C83.9641 113.375 82.5625 111.973 82.5625 110.25V82.125H79.4375V110.25C79.4375 111.973 78.036 113.375 76.3125 113.375C74.5891 113.375 73.1875 111.973 73.1875 110.25V64.9375H70.0625V86.8125H68.5C66.7766 86.8125 65.375 85.4109 65.375 83.6875V71.1875C65.375 63.8812 70.4219 57.7484 77.2078 56.0469L76.2797 70.05L81 77.1297L85.7203 70.0516L84.7922 56.0484C91.5782 57.7484 96.625 63.8812 96.625 71.1875V83.6875C96.625 85.4109 95.2235 86.8125 93.5 86.8125H91.9375V64.9375H88.8125V110.25Z" fill="#197081"/>
<path d="M45.0625 46.1875H65.375V38.375C65.375 34.0672 61.8703 30.5625 57.5625 30.5625H45.0625C40.7547 30.5625 37.25 34.0672 37.25 38.375C37.25 42.6828 40.7547 46.1875 45.0625 46.1875ZM45.0625 33.6875H57.5625C60.1469 33.6875 62.25 35.7906 62.25 38.375V43.0625H45.0625C42.4782 43.0625 40.375 40.9594 40.375 38.375C40.375 35.7906 42.4782 33.6875 45.0625 33.6875Z" fill="#C2FF01"/>
<path d="M123.312 78.625H103V70.8125C103 66.5047 106.505 63 110.812 63H123.312C127.62 63 131.125 66.5047 131.125 70.8125C131.125 75.1203 127.62 78.625 123.312 78.625ZM123.312 66.125H110.812C108.228 66.125 106.125 68.2281 106.125 70.8125V75.5H123.312C125.897 75.5 128 73.3969 128 70.8125C128 68.2281 125.897 66.125 123.312 66.125Z" fill="#C2FF01"/>
<path d="M56 36.8125H59.125V39.9375H56V36.8125Z" fill="#C2FF01"/>
<path d="M112.375 69.25H109.25V72.375H112.375V69.25Z" fill="#C2FF01"/>
<path d="M49.75 36.8125H52.875V39.9375H49.75V36.8125Z" fill="#C2FF01"/>
<path d="M118.625 69.25H115.5V72.375H118.625V69.25Z" fill="#C2FF01"/>
<path d="M43.5 36.8125H46.625V39.9375H43.5V36.8125Z" fill="#C2FF01"/>
<path d="M124.875 69.25H121.75V72.375H124.875V69.25Z" fill="#C2FF01"/>
<g clip-path="url(#clip1)">
<path d="M120.174 120.035C118.472 118.333 116.446 117.073 114.236 116.311C116.603 114.68 118.158 111.952 118.158 108.867C118.158 103.886 114.106 99.8334 109.125 99.8334C104.144 99.8334 100.092 103.886 100.092 108.867C100.092 111.952 101.647 114.68 104.014 116.311C101.804 117.073 99.7784 118.333 98.0765 120.035C95.1253 122.986 93.5 126.91 93.5 131.083H95.9414C95.9414 123.814 101.856 117.9 109.125 117.9C116.395 117.9 122.309 123.814 122.309 131.083H124.75C124.75 126.91 123.125 122.986 120.174 120.035ZM109.125 115.458C105.49 115.458 102.533 112.501 102.533 108.867C102.533 105.232 105.49 102.275 109.125 102.275C112.76 102.275 115.717 105.232 115.717 108.867C115.717 112.501 112.76 115.458 109.125 115.458Z" fill="#197081"/>
</g>
</g>
<defs>
<linearGradient id="paint0_linear" x1="85.2466" y1="3.53829" x2="192.02" y2="110.311" gradientUnits="userSpaceOnUse">
<stop stop-color="#1D1D54"/>
<stop offset="1" stop-color="#1D1D54" stop-opacity="0"/>
</linearGradient>
<clipPath id="clip0">
<rect width="100" height="100" fill="white" transform="translate(31 29)"/>
</clipPath>
<clipPath id="clip1">
<rect width="31.25" height="31.25" fill="white" transform="translate(93.5 99.8334)"/>
</clipPath>
</defs>
</svg>
