<svg width="163" height="163" viewBox="0 0 163 163" fill="none" xmlns="http://www.w3.org/2000/svg">
<rect opacity="0.1" x="81.502" y="2.82843" width="110.557" height="110.557" rx="13" transform="rotate(45 81.502 2.82843)" stroke="url(#paint0_linear)" stroke-width="4"/>
<path d="M68.7592 59.821L68.9101 59.5176L66.3384 58.2311L66.1875 58.5358C65.6398 59.6312 64.5387 60.3126 63.3125 60.3126C62.0863 60.3126 60.9852 59.6312 60.4375 58.5358L60.2866 58.2325L57.7149 59.5191L57.8658 59.8224C58.9037 61.8981 60.9909 63.1876 63.3125 63.1876C65.6341 63.1876 67.7213 61.8981 68.7592 59.821Z" fill="#197081"/>
<path d="M126.563 43.0625V40.1875C126.563 38.6019 125.273 37.3125 123.688 37.3125H78.3488C76.7675 35.553 74.4833 34.4375 71.9375 34.4375H57.5625C51.2217 34.4375 46.0625 39.5967 46.0625 45.9375C46.0625 47.7257 46.5383 49.7914 47.007 51.4201C46.4133 52.3243 46.0625 53.4024 46.0625 54.5625C46.0625 57.7336 48.6414 60.3125 51.8125 60.3125H52.1906C52.9438 63.222 54.8054 65.683 57.3009 67.2226L56.3493 71.9821L49.6261 73.0171C42.5637 74.1024 37.4375 80.0781 37.4375 87.2254V97.6875C37.4375 102.444 41.3058 106.312 46.0625 106.312V123.562H80.5625V106.312H123.688C125.273 106.312 126.563 105.023 126.563 103.438V100.562C126.563 98.9769 125.273 97.6875 123.688 97.6875V45.9375C125.273 45.9375 126.563 44.6481 126.563 43.0625ZM123.688 40.1875V43.0625H80.5625C80.5625 42.0534 80.3785 41.0888 80.0594 40.1875H123.688ZM48.9375 54.5625C48.9375 52.9769 50.227 51.6875 51.8125 51.6875H51.8269C51.8255 51.7479 51.8125 51.8039 51.8125 51.8643V57.4375C50.227 57.4375 48.9375 56.1481 48.9375 54.5625ZM52.514 48.8125H51.8125C50.9587 48.8125 50.1565 49.0109 49.4277 49.3458C49.1647 48.2447 48.9375 46.9955 48.9375 45.9375C48.9375 41.1808 52.8058 37.3125 57.5625 37.3125H71.9375C75.1087 37.3125 77.6875 39.8914 77.6875 43.0625C77.6875 46.2336 75.1087 48.8125 71.9375 48.8125H63.1832C61.668 48.8125 60.4375 47.582 60.4375 46.0669V45.8512C60.4375 44.3131 61.668 43.0625 63.291 43.0625C64.8895 43.0625 66.1875 44.3519 66.1875 45.9375H69.0625C69.0625 42.7664 66.4736 40.1875 63.1832 40.1875C60.4447 40.1875 58.1648 42.1741 57.6689 44.7889L57.2578 44.891C55.1073 45.4301 53.411 46.9078 52.514 48.8125ZM74.8125 51.6875C76.3981 51.6875 77.6875 52.9769 77.6875 54.5625C77.6875 56.1481 76.3981 57.4375 74.8125 57.4375V51.6875ZM54.6875 57.4375V51.8643C54.6875 49.9237 55.9798 48.2404 57.8385 47.7186C58.5501 50.0085 60.6632 51.6875 63.1832 51.6875H71.9375V57.4375C71.9375 62.1942 68.0692 66.0625 63.3125 66.0625C58.5558 66.0625 54.6875 62.1942 54.6875 57.4375ZM54.6875 106.312H69.0625C70.1148 106.312 71.088 106.008 71.9375 105.513V112.062H54.6875V106.312ZM60.4375 96.8451L61.6666 95.6161C62.1841 95.0986 62.8727 94.8125 63.6058 94.8125C64.6508 94.8125 65.5895 95.3933 66.0567 96.3262L66.7352 97.6875H69.0625C70.6481 97.6875 71.9375 98.9769 71.9375 100.562C71.9375 102.148 70.6481 103.438 69.0625 103.438H60.4375V96.8451ZM71.9375 95.6117C71.088 95.1172 70.1148 94.8125 69.0625 94.8125H68.5077C67.5143 93.0329 65.6585 91.9375 63.6058 91.9375C62.105 91.9375 60.6963 92.5211 59.634 93.5834L58.4049 94.8125H54.6875V89.0625H71.9375V95.6117ZM65.0648 77.5625H61.5588L60.84 74.6875H65.7836L65.0648 77.5625ZM61.6551 80.4375H64.97L65.9288 86.1875H60.6963L61.6551 80.4375ZM67.6552 79.0589L68.7463 74.6875H68.9849L72.3199 75.021L68.3165 83.0279L67.6552 79.0589ZM63.3125 68.9375C64.4683 68.9375 65.5823 68.7621 66.6346 68.443L67.3088 71.8125H59.3163L59.9905 68.443C61.0427 68.7621 62.1568 68.9375 63.3125 68.9375ZM57.6718 74.6875H57.8788L58.9713 79.0589L58.31 83.0279L54.3914 75.1921L57.6718 74.6875ZM40.3125 97.6875V87.2254C40.3125 81.507 44.4137 76.7273 50.0645 75.8591L51.4057 75.6521L56.6742 86.1875H54.6875C53.102 86.1875 51.8125 87.4769 51.8125 89.0625V94.8125H48.9375V83.3125H46.0625V95.6549L43.6087 98.1087L45.6413 100.141L48.0952 97.6875H57.5625V103.438H46.0625C42.8914 103.438 40.3125 100.859 40.3125 97.6875ZM77.6875 120.688H48.9375V106.312H51.8125V112.062C51.8125 113.648 53.102 114.938 54.6875 114.938H71.9375C73.5231 114.938 74.8125 113.648 74.8125 112.062V89.0625C74.8125 87.4769 73.5231 86.1875 71.9375 86.1875H69.9509L75.3803 75.3272L78.1878 75.6075C81.1519 75.9036 83.9421 77.2261 86.0495 79.3335L92.0625 85.3451V89.0625H94.9375V71.8125H100.688V92.7411C100.688 95.468 98.468 97.6875 95.7411 97.6875C94.6227 97.6875 93.5245 97.3022 92.6505 96.6022L80.5625 86.9336V83.3125H77.6875V120.688ZM100.688 68.9375H94.0952L92.8661 67.7084C92.3472 67.1895 92.0625 66.5024 92.0625 65.7692C92.0625 64.7242 92.6433 63.7855 93.5762 63.3183L94.9375 62.6398V60.3125C94.9375 58.7269 96.227 57.4375 97.8125 57.4375C99.3981 57.4375 100.688 58.7269 100.688 60.3125V68.9375ZM80.5625 90.6164L89.4032 97.6875H80.5625V90.6164ZM123.688 103.438H80.5625V100.562H123.688V103.438ZM120.813 97.6875H101.793C102.897 96.3391 103.563 94.6156 103.563 92.7411V60.3125C103.563 57.1414 100.984 54.5625 97.8125 54.5625C94.6414 54.5625 92.0625 57.1414 92.0625 60.3125V60.8674C90.2829 61.8607 89.1875 63.7165 89.1875 65.7692C89.1875 67.27 89.7712 68.6787 90.8335 69.7411L92.0625 70.9701V81.2799L88.0821 77.2994C85.5075 74.7249 82.0949 73.1077 78.4738 72.7454L70.2628 71.9246L69.3213 67.2226C71.8182 65.683 73.6783 63.222 74.4316 60.3125H74.8125C77.9837 60.3125 80.5625 57.7336 80.5625 54.5625C80.5625 52.4048 79.3536 50.5433 77.5912 49.56C78.6995 48.594 79.5563 47.3506 80.058 45.9375H120.813V97.6875Z" fill="#197081"/>
<path d="M106.438 77.5625H117.938V80.4375H106.438V77.5625Z" fill="#C2FF01"/>
<path d="M106.438 71.8125H117.938V74.6875H106.438V71.8125Z" fill="#C2FF01"/>
<path d="M112.188 83.3125H117.938V86.1875H112.188V83.3125Z" fill="#C2FF01"/>
<path d="M112.188 89.0625H117.938V91.9375H112.188V89.0625Z" fill="#C2FF01"/>
<path d="M83.4375 48.8125H94.9375V51.6875H83.4375V48.8125Z" fill="#C2FF01"/>
<path d="M83.4375 54.5625H89.1875V57.4375H83.4375V54.5625Z" fill="#C2FF01"/>
<defs>
<linearGradient id="paint0_linear" x1="85.7446" y1="3.53829" x2="192.518" y2="110.311" gradientUnits="userSpaceOnUse">
<stop stop-color="#1D1D54"/>
<stop offset="1" stop-color="#1D1D54" stop-opacity="0"/>
</linearGradient>
</defs>
</svg>
