<svg width="163" height="163" viewBox="0 0 163 163" fill="none" xmlns="http://www.w3.org/2000/svg">
<rect opacity="0.1" x="81.0039" y="2.82843" width="110.557" height="110.557" rx="13" transform="rotate(45 81.0039 2.82843)" stroke="url(#paint0_linear)" stroke-width="4"/>
<g clip-path="url(#clip0)">
<path d="M114.713 113.873C115.798 112.531 116.393 110.859 116.4 109.133V106.067C116.4 101.833 112.967 98.4 108.733 98.4C104.499 98.4 101.067 101.833 101.067 106.067V109.133C101.073 110.859 101.668 112.531 102.753 113.873C100.85 114.227 99.1508 115.29 98.0001 116.848C96.8493 115.29 95.1506 114.227 93.2467 113.873C94.3318 112.531 94.9267 110.859 94.9334 109.133V106.067C94.9334 101.833 91.5008 98.4 87.2667 98.4C83.0326 98.4 79.6001 101.833 79.6001 106.067V109.133C79.6068 110.859 80.2017 112.531 81.2867 113.873C79.3829 114.227 77.6842 115.29 76.5334 116.848C75.3826 115.29 73.6839 114.227 71.7801 113.873C72.8651 112.531 73.46 110.859 73.4667 109.133V106.067C73.4667 101.833 70.0342 98.4 65.8001 98.4C61.566 98.4 58.1334 101.833 58.1334 106.067V109.133C58.1401 110.859 58.7351 112.531 59.8201 113.873C56.184 114.538 53.5403 117.704 53.5334 121.4V126H56.6001V121.4C56.6001 118.859 58.6595 116.8 61.2001 116.8H70.4001C72.9406 116.8 75.0001 118.859 75.0001 121.4V126H78.0667V121.4C78.0667 118.859 80.1262 116.8 82.6667 116.8H91.8667C94.4073 116.8 96.4667 118.859 96.4667 121.4V126H99.5334V121.4C99.5334 118.859 101.593 116.8 104.133 116.8H113.333C115.874 116.8 117.933 118.859 117.933 121.4V126H121V121.4C120.993 117.704 118.35 114.538 114.713 113.873ZM70.4001 109.133C70.4001 111.674 68.3406 113.733 65.8001 113.733C63.2595 113.733 61.2001 111.674 61.2001 109.133V106.067C61.2001 103.526 63.2595 101.467 65.8001 101.467C68.3406 101.467 70.4001 103.526 70.4001 106.067V109.133ZM91.8667 109.133C91.8667 111.674 89.8073 113.733 87.2667 113.733C84.7262 113.733 82.6667 111.674 82.6667 109.133V106.067C82.6667 103.526 84.7262 101.467 87.2667 101.467C89.8073 101.467 91.8667 103.526 91.8667 106.067V109.133ZM113.333 109.133C113.333 111.674 111.274 113.733 108.733 113.733C106.193 113.733 104.133 111.674 104.133 109.133V106.067C104.133 103.526 106.193 101.467 108.733 101.467C111.274 101.467 113.333 103.526 113.333 106.067V109.133Z" fill="#197081"/>
<path d="M66.3608 64.7737C66.1822 64.7031 65.9921 64.6669 65.8 64.6667H59.6667C59.0219 64.6665 58.446 65.0698 58.2254 65.6756L56.6 70.1453L56.5464 69.9996C55.376 66.803 52.3376 64.6744 48.9334 64.6667H48.8935C49.9082 63.3475 50.4611 61.7311 50.4667 60.0667V57C50.4667 52.7659 47.0341 49.3334 42.8 49.3334C38.5659 49.3334 35.1334 52.7659 35.1334 57V60.0667C35.1389 61.7311 35.6919 63.3475 36.7066 64.6667H36.6667C32.4347 64.6717 29.005 68.1014 29 72.3334V90.7334C29 91.5802 29.6866 92.2667 30.5334 92.2667H35.1334V107.14L32.3243 111.349C31.8543 112.053 32.0443 113.006 32.7488 113.476C33.0009 113.644 33.297 113.733 33.6 113.733H52C52.8468 113.734 53.5336 113.047 53.5336 112.2C53.5336 111.897 53.4439 111.601 53.2758 111.349L50.4667 107.14V78.8286L50.8531 79.5952C52.4025 82.692 56.1688 83.9465 59.2655 82.397C60.6379 81.7105 61.7106 80.5444 62.281 79.1199L64.7712 72.8961L67.2245 66.7628C67.5354 65.975 67.1486 65.0845 66.3608 64.7737ZM38.2 57C38.2 54.4595 40.2595 52.4 42.8 52.4C45.3406 52.4 47.4 54.4595 47.4 57V60.0667C47.4 62.6072 45.3406 64.6667 42.8 64.6667C40.2595 64.6667 38.2 62.6072 38.2 60.0667V57ZM35.1334 89.2H32.0667V86.1334H35.1334V89.2ZM44.3334 110.667V92.2667H41.2667V110.667H36.4658L37.9424 108.451C38.1099 108.199 38.1995 107.903 38.2 107.6V89.2H47.4V107.6C47.4006 107.903 47.4901 108.199 47.6576 108.451L49.1342 110.667H44.3334ZM59.4336 77.9883C58.7754 79.6303 56.9107 80.428 55.2687 79.7698C54.5417 79.4785 53.9468 78.9309 53.5962 78.2306L50.3134 71.648C49.9444 70.8857 49.0273 70.567 48.265 70.9361C47.7303 71.1951 47.3933 71.7394 47.4 72.3334V86.1334H38.2V72.3334C38.2 71.4866 37.5135 70.8 36.6667 70.8C35.8199 70.8 35.1334 71.4866 35.1334 72.3334V83.0667H32.0667V72.3334C32.0667 69.7928 34.1262 67.7334 36.6667 67.7334H41.2667V83.0667H44.3334V67.7334H48.9334C51.0486 67.7376 52.9369 69.0603 53.6637 71.0469L55.1587 75.1578C55.4475 75.9538 56.3271 76.3649 57.1231 76.076C57.5501 75.9212 57.8863 75.5848 58.0414 75.1578L58.5106 73.8667H61.082L59.4336 77.9883ZM62.3086 70.8H59.6253L60.74 67.7334H63.5353L62.3086 70.8Z" fill="#197081"/>
<path d="M119.467 43.2C120.314 43.2 121 42.5135 121 41.6667V35.5333C121 34.6866 120.314 34 119.467 34H55.0667C54.22 34 53.5334 34.6866 53.5334 35.5333V41.6667C53.5334 42.5135 54.22 43.2 55.0667 43.2H56.6001V61.6H59.6667V43.2H114.867V76.9333H65.8001V80H85.7334V86.7773L75.7667 92.4691L77.2878 95.1309L85.7334 90.3086V95.3333H88.8001V90.3086L97.2334 95.1309L98.7545 92.4691L88.8001 86.7773V80H121V76.9333H117.933V43.2H119.467ZM56.6001 40.1333V37.0667H117.933V40.1333H56.6001Z" fill="#C2FF01"/>
<path d="M104.506 50.9126L98.3724 49.3793L97.6272 52.3539L100.499 53.0715L88.8611 61.2181L82.0915 55.8024C81.5554 55.3742 80.8002 55.3541 80.2423 55.7533L69.5089 63.42L71.2907 65.9132L81.081 58.9212L87.8415 64.3308C88.3735 64.7573 89.1233 64.781 89.6815 64.3891L102.6 55.3455V58.5333H105.666V52.3999C105.666 51.6967 105.188 51.0836 104.506 50.9126Z" fill="#197081"/>
</g>
<defs>
<linearGradient id="paint0_linear" x1="85.2466" y1="3.53829" x2="192.02" y2="110.311" gradientUnits="userSpaceOnUse">
<stop stop-color="#1D1D54"/>
<stop offset="1" stop-color="#1D1D54" stop-opacity="0"/>
</linearGradient>
<clipPath id="clip0">
<rect width="92" height="92" fill="white" transform="translate(29 34)"/>
</clipPath>
</defs>
</svg>
