<svg width="251" height="251" viewBox="0 0 251 251" fill="none" xmlns="http://www.w3.org/2000/svg">
<rect y="125.309" width="177.214" height="176.848" rx="34" transform="rotate(-45 0 125.309)" fill="#C2FF01"/>
<g clip-path="url(#clip0)">
<path d="M125.845 119.213C125.654 119.172 125.459 119.164 125.266 119.193C123.331 118.968 121.872 117.331 121.868 115.384C121.868 114.451 121.112 113.695 120.179 113.695C119.246 113.695 118.489 114.451 118.489 115.384C118.494 118.635 120.669 121.483 123.804 122.343V124.033C123.804 124.966 124.56 125.722 125.493 125.722C126.426 125.722 127.183 124.966 127.183 124.033V122.446C130.801 121.688 133.26 118.319 132.88 114.642C132.499 110.965 129.401 108.171 125.704 108.17C123.586 108.17 121.868 106.452 121.868 104.334C121.868 102.216 123.586 100.498 125.704 100.498C127.823 100.498 129.54 102.216 129.54 104.334C129.54 105.267 130.297 106.023 131.23 106.023C132.163 106.023 132.919 105.267 132.919 104.334C132.915 100.92 130.523 97.9761 127.183 97.2716V95.7339C127.183 94.8009 126.426 94.0444 125.493 94.0444C124.56 94.0444 123.804 94.8009 123.804 95.7339V97.3747C120.318 98.3267 118.074 101.711 118.554 105.293C119.034 108.875 122.09 111.549 125.704 111.548C127.795 111.548 129.5 113.222 129.538 115.312C129.577 117.401 127.933 119.137 125.845 119.213Z" fill="#197081"/>
<path d="M101.205 109.989C101.205 123.52 112.174 134.488 125.704 134.488C139.235 134.488 150.204 123.52 150.204 109.989C150.204 96.4582 139.235 85.4897 125.704 85.4897C112.18 85.5045 101.221 96.4648 101.205 109.989ZM125.704 88.8687C137.369 88.8687 146.825 98.3243 146.825 109.989C146.825 121.654 137.369 131.109 125.704 131.109C114.04 131.109 104.584 121.654 104.584 109.989C104.597 98.33 114.045 88.8819 125.704 88.8687Z" fill="#197081"/>
<path d="M158.532 138.654L145.298 144.907C143.47 141.508 139.965 139.345 136.108 139.236L123.89 138.9C121.956 138.845 120.058 138.355 118.338 137.466L117.094 136.822C110.729 133.504 103.142 133.513 96.7833 136.844L96.8608 134.027C96.8864 133.094 96.1514 132.317 95.2183 132.292L81.8212 131.923C80.8881 131.897 80.1119 132.632 80.0863 133.565L79.277 162.965C79.2514 163.898 79.9865 164.675 80.9195 164.701L94.3167 165.069H94.3629C95.2786 165.069 96.0276 164.341 96.0524 163.426L96.0911 162.019L99.5716 160.156C100.938 159.421 102.535 159.246 104.027 159.668L124.811 165.502C124.847 165.512 124.884 165.521 124.921 165.529C126.423 165.843 127.954 166.001 129.488 166C132.739 166.002 135.951 165.301 138.905 163.945C138.978 163.912 139.048 163.873 139.115 163.829L169.249 144.337C170 143.852 170.243 142.866 169.803 142.087C167.566 138.117 162.604 136.605 158.532 138.654ZM82.7014 161.369L83.4174 135.347L93.4365 135.623L92.7204 161.646L82.7014 161.369ZM137.383 160.927C133.713 162.584 129.614 163.041 125.669 162.235L104.941 156.416C102.608 155.757 100.111 156.03 97.977 157.178L96.1984 158.131L96.6744 140.829C102.31 137.08 109.539 136.695 115.541 139.823L116.784 140.467C118.957 141.589 121.354 142.207 123.798 142.278L136.016 142.614C139.448 142.713 142.363 145.157 143.059 148.519L124.86 148.017C123.927 147.991 123.15 148.727 123.124 149.659C123.098 150.592 123.834 151.369 124.766 151.395L144.851 151.948H144.898C145.813 151.947 146.561 151.218 146.585 150.304C146.606 149.57 146.552 148.835 146.422 148.112L159.997 141.698C160.01 141.693 160.023 141.686 160.036 141.68C161.962 140.705 164.29 141.031 165.874 142.497L137.383 160.927Z" fill="#197081"/>
<path d="M127.394 80.7395V64.6893C127.394 63.7563 126.637 62.9998 125.704 62.9998C124.771 62.9998 124.015 63.7563 124.015 64.6893V80.7395C124.015 81.6726 124.771 82.429 125.704 82.429C126.637 82.429 127.394 81.6726 127.394 80.7395Z" fill="#197081"/>
<path d="M140.065 80.7396V73.1368C140.065 72.2038 139.309 71.4473 138.376 71.4473C137.443 71.4473 136.686 72.2038 136.686 73.1368V80.7396C136.686 81.6726 137.443 82.4291 138.376 82.4291C139.309 82.4291 140.065 81.6726 140.065 80.7396Z" fill="#197081"/>
<path d="M114.723 80.7396V73.1368C114.723 72.2038 113.966 71.4473 113.033 71.4473C112.1 71.4473 111.344 72.2038 111.344 73.1368V80.7396C111.344 81.6726 112.1 82.4291 113.033 82.4291C113.966 82.4291 114.723 81.6726 114.723 80.7396Z" fill="#197081"/>
</g>
<defs>
<clipPath id="clip0">
<rect width="103" height="103" fill="white" transform="translate(73 62.9998)"/>
</clipPath>
</defs>
</svg>
