<svg width="18" height="18" viewBox="0 0 18 18" fill="none" xmlns="http://www.w3.org/2000/svg">
<g clip-path="url(#clip0)">
<path d="M16.1505 5.33475C16.8825 4.815 17.4982 4.16625 18 3.41925V3.4185C17.3302 3.71175 16.6178 3.90675 15.8738 4.00125C16.6388 3.5445 17.223 2.82675 17.4975 1.962C16.7843 2.38725 15.9967 2.68725 15.1575 2.85525C14.4802 2.13375 13.515 1.6875 12.462 1.6875C10.419 1.6875 8.77425 3.34575 8.77425 5.37825C8.77425 5.67075 8.799 5.952 8.85975 6.21975C5.79225 6.06975 3.07725 4.59975 1.25325 2.3595C0.93525 2.91225 0.74775 3.5445 0.74775 4.22475C0.74775 5.50275 1.4055 6.63525 2.38725 7.2915C1.794 7.28025 1.21275 7.10775 0.72 6.837V6.8775C0.72 8.67075 1.99875 10.1602 3.6765 10.5037C3.37575 10.5863 3.04875 10.6252 2.709 10.6252C2.47275 10.6252 2.23425 10.6118 2.01075 10.5623C2.4885 12.0233 3.846 13.098 5.4585 13.1332C4.203 14.115 2.6085 14.7067 0.88275 14.7067C0.5805 14.7067 0.29025 14.6932 0 14.6565C1.635 15.7102 3.5715 16.3125 5.661 16.3125C12.1732 16.3125 16.4175 10.8795 16.1505 5.33475Z" fill="white"/>
</g>
<defs>
<clipPath id="clip0">
<rect width="18" height="18" fill="white"/>
</clipPath>
</defs>
</svg>
