<svg width="182" height="22" viewBox="0 0 182 22" fill="none" xmlns="http://www.w3.org/2000/svg">
<path d="M7.02074 13.7658H8.86674C10.0714 13.7658 10.9857 13.4408 11.6097 12.7908C12.2424 12.1321 12.5587 11.2134 12.5587 10.0348C12.5587 8.85611 12.2424 7.94177 11.6097 7.29177C10.9857 6.63311 10.0714 6.30377 8.86674 6.30377H7.02074V13.7658ZM8.86674 5.49777C10.3141 5.49777 11.4451 5.90077 12.2597 6.70677C13.0831 7.50411 13.4947 8.61344 13.4947 10.0348C13.4947 11.4561 13.0874 12.5524 12.2727 13.3238C11.4581 14.0864 10.3227 14.4678 8.86674 14.4678H6.11074V5.49777H8.86674ZM17.9742 14.5978C16.9602 14.5978 16.1368 14.2598 15.5042 13.5838C14.8715 12.9078 14.5552 12.0194 14.5552 10.9188C14.5552 9.80944 14.8758 8.92111 15.5172 8.25377C16.1672 7.57777 17.0035 7.23977 18.0262 7.23977C19.0575 7.23977 19.8765 7.55611 20.4832 8.18877C21.0898 8.82144 21.3932 9.60577 21.3932 10.5418C21.3932 10.7931 21.3758 11.0271 21.3412 11.2438H15.4912C15.5258 12.0584 15.7728 12.6998 16.2322 13.1678C16.6915 13.6358 17.2722 13.8698 17.9742 13.8698C18.5202 13.8698 18.9838 13.7441 19.3652 13.4928C19.7552 13.2414 20.0238 12.9121 20.1712 12.5048H21.1462C20.9122 13.1114 20.5308 13.6141 20.0022 14.0128C19.4735 14.4028 18.7975 14.5978 17.9742 14.5978ZM20.4572 10.5288C20.4572 9.74877 20.2188 9.12911 19.7422 8.66977C19.2742 8.20177 18.6892 7.96777 17.9872 7.96777C17.2938 7.96777 16.7132 8.19744 16.2452 8.65677C15.7858 9.10744 15.5345 9.73144 15.4912 10.5288H20.4572ZM22.6863 9.33277C22.6863 8.74344 22.9289 8.24944 23.4143 7.85077C23.8996 7.44344 24.5193 7.23977 25.2733 7.23977C26.0273 7.23977 26.6123 7.43911 27.0283 7.83777C27.4529 8.22777 27.6869 8.76944 27.7303 9.46277H26.7943C26.7769 9.02944 26.6296 8.67411 26.3523 8.39677C26.0749 8.11077 25.6893 7.96777 25.1953 7.96777C24.7013 7.96777 24.3113 8.08911 24.0253 8.33177C23.7479 8.57444 23.6093 8.86911 23.6093 9.21577C23.6093 9.55377 23.7133 9.82244 23.9213 10.0218C24.1293 10.2211 24.3893 10.3554 24.7013 10.4248C25.0219 10.4941 25.3643 10.5764 25.7282 10.6718C26.1009 10.7671 26.4433 10.8711 26.7553 10.9838C27.0759 11.0878 27.3403 11.2828 27.5483 11.5688C27.7563 11.8461 27.8603 12.2058 27.8603 12.6478C27.8603 13.2198 27.6219 13.6878 27.1453 14.0518C26.6686 14.4158 26.0403 14.5978 25.2603 14.5978C24.4889 14.5978 23.8779 14.3984 23.4273 13.9998C22.9766 13.6011 22.7296 13.0594 22.6863 12.3748H23.6222C23.6396 12.8168 23.7956 13.1764 24.0903 13.4538C24.3849 13.7311 24.7879 13.8698 25.2993 13.8698C25.8193 13.8698 26.2223 13.7614 26.5083 13.5448C26.7943 13.3194 26.9373 13.0334 26.9373 12.6868C26.9373 12.3401 26.8333 12.0671 26.6253 11.8678C26.4173 11.6684 26.1529 11.5341 25.8323 11.4648C25.5203 11.3868 25.1779 11.3001 24.8053 11.2048C24.4413 11.1094 24.0989 11.0098 23.7783 10.9058C23.4663 10.8018 23.2063 10.6154 22.9983 10.3468C22.7903 10.0781 22.6863 9.74011 22.6863 9.33277ZM30.7408 5.36777C30.7408 5.54977 30.6758 5.70577 30.5458 5.83577C30.4244 5.96577 30.2684 6.03077 30.0778 6.03077C29.8958 6.03077 29.7398 5.96577 29.6098 5.83577C29.4798 5.70577 29.4148 5.54977 29.4148 5.36777C29.4148 5.17711 29.4798 5.01677 29.6098 4.88677C29.7398 4.75677 29.8958 4.69177 30.0778 4.69177C30.2684 4.69177 30.4244 4.75677 30.5458 4.88677C30.6758 5.01677 30.7408 5.17711 30.7408 5.36777ZM29.6098 14.4678V7.36977H30.5198V14.4678H29.6098ZM35.4432 14.5978C34.4552 14.5978 33.6362 14.2468 32.9862 13.5448C32.3362 12.8428 32.0112 11.9501 32.0112 10.8668C32.0112 9.77477 32.3319 8.89944 32.9732 8.24077C33.6232 7.57344 34.4465 7.23977 35.4432 7.23977C36.0845 7.23977 36.6479 7.39577 37.1332 7.70777C37.6185 8.01977 37.9782 8.42277 38.2122 8.91677V7.36977H39.1222V14.7148C39.1222 15.6768 38.8015 16.4568 38.1602 17.0548C37.5275 17.6528 36.7519 17.9518 35.8332 17.9518C34.9145 17.9518 34.1389 17.7264 33.5062 17.2758C32.8735 16.8251 32.5095 16.2661 32.4142 15.5988H33.3112C33.4239 16.0408 33.7099 16.4134 34.1692 16.7168C34.6285 17.0201 35.1919 17.1718 35.8592 17.1718C36.5265 17.1718 37.0855 16.9508 37.5362 16.5088C37.9869 16.0754 38.2122 15.4774 38.2122 14.7148V12.9078C37.9782 13.4018 37.6185 13.8091 37.1332 14.1298C36.6479 14.4418 36.0845 14.5978 35.4432 14.5978ZM37.4322 13.0248C37.9522 12.4874 38.2122 11.7854 38.2122 10.9188C38.2122 10.0521 37.9522 9.35444 37.4322 8.82577C36.9209 8.28844 36.3012 8.01977 35.5732 8.01977C34.8452 8.01977 34.2255 8.27544 33.7142 8.78677C33.2029 9.29811 32.9472 9.99144 32.9472 10.8668C32.9472 11.7334 33.2029 12.4441 33.7142 12.9988C34.2342 13.5448 34.8539 13.8178 35.5732 13.8178C36.3012 13.8178 36.9209 13.5534 37.4322 13.0248ZM41.9836 7.36977V8.52677C42.4603 7.66877 43.2446 7.23977 44.3366 7.23977C45.1253 7.23977 45.784 7.49977 46.3126 8.01977C46.8413 8.53111 47.1056 9.27211 47.1056 10.2428V14.4678H46.2086V10.4118C46.2086 9.63177 46.018 9.03811 45.6366 8.63077C45.264 8.22344 44.7483 8.01977 44.0896 8.01977C43.4396 8.01977 42.924 8.22344 42.5426 8.63077C42.17 9.03811 41.9836 9.63177 41.9836 10.4118V14.4678H41.0736V7.36977H41.9836ZM56.429 13.8178C57.157 13.8178 57.7766 13.5448 58.288 12.9988C58.808 12.4441 59.068 11.7334 59.068 10.8668C59.068 9.99144 58.8123 9.29811 58.301 8.78677C57.7896 8.27544 57.1656 8.01977 56.429 8.01977C55.701 8.01977 55.0813 8.28844 54.57 8.82577C54.0586 9.35444 53.803 10.0521 53.803 10.9188C53.803 11.7854 54.0586 12.4874 54.57 13.0248C55.0813 13.5534 55.701 13.8178 56.429 13.8178ZM56.572 7.23977C57.5686 7.23977 58.3876 7.57344 59.029 8.24077C59.679 8.89944 60.004 9.77477 60.004 10.8668C60.004 11.9501 59.679 12.8428 59.029 13.5448C58.379 14.2468 57.56 14.5978 56.572 14.5978C55.9306 14.5978 55.3673 14.4418 54.882 14.1298C54.3966 13.8091 54.037 13.4018 53.803 12.9078V14.4678H52.893V4.84777H53.803V8.91677C54.037 8.42277 54.3966 8.01977 54.882 7.70777C55.3673 7.39577 55.9306 7.23977 56.572 7.23977ZM63.5284 14.3638L60.7074 7.36977H61.6824L64.0224 13.4018L66.3624 7.36977H67.2854L63.0734 17.7698H62.1504L63.5284 14.3638Z" fill="white"/>
<path d="M176.319 15.4077C177.382 15.4077 178.398 15.166 179.365 14.7308C180.332 14.2473 181.105 13.6188 181.782 12.7969L181.009 12.2167C180.428 12.9419 179.703 13.4738 178.93 13.8606C178.108 14.2473 177.237 14.4407 176.319 14.4407C175.207 14.4407 174.24 14.1506 173.273 13.6188C172.354 13.087 171.629 12.3134 171.049 11.3948C170.517 10.4762 170.227 9.41253 170.227 8.34887C170.227 7.23686 170.517 6.22155 171.049 5.30294C171.581 4.38432 172.354 3.61075 173.273 3.07892C174.191 2.54709 175.207 2.257 176.319 2.257C177.189 2.257 177.963 2.45039 178.736 2.78883C179.51 3.12727 180.187 3.6591 180.767 4.28762L181.492 3.61075C180.815 2.88553 180.042 2.30535 179.123 1.91856C178.204 1.53178 177.286 1.29004 176.319 1.29004C175.062 1.29004 173.901 1.62848 172.789 2.257C171.726 2.88553 170.855 3.75579 170.227 4.81945C169.598 5.88311 169.308 7.09182 169.308 8.34887C169.308 9.60592 169.598 10.8146 170.227 11.8783C170.855 12.9419 171.726 13.8122 172.789 14.4891C173.901 15.1176 175.062 15.4077 176.319 15.4077ZM166.552 15.2627V14.2473H158.527V8.83235H164.764V7.86539H158.527V2.40205H166.552V1.43508H157.56V15.2627H166.552ZM154.465 1.43508V2.40205H149.002V15.2627H148.035V2.40205H142.523V1.43508H154.465Z" fill="white"/>
<path fill-rule="evenodd" clip-rule="evenodd" d="M119.075 8.92862V13.8601H122.701C123.281 13.8601 123.861 13.7634 124.393 13.4734C124.828 13.2316 125.215 12.9415 125.505 12.5547C125.747 12.2163 125.892 11.8295 125.892 11.3944C125.892 10.9592 125.747 10.5241 125.456 10.1857C125.166 9.79889 124.828 9.5088 124.393 9.31541C123.668 8.97697 122.797 8.92862 122.024 8.92862H119.075ZM119.075 6.9947H121.589C121.879 6.9947 122.169 6.9947 122.459 6.94635C122.701 6.898 122.894 6.84965 123.136 6.75296C123.474 6.60791 123.764 6.36617 124.006 6.07608C124.296 5.786 124.393 5.39921 124.393 4.96408C124.393 4.62564 124.296 4.2872 124.103 3.94877C123.861 3.61033 123.571 3.36859 123.184 3.17519C122.701 2.93345 122.169 2.88511 121.637 2.88511H119.123V6.9947H119.075ZM137.06 7.47818C137.495 7.28479 137.834 6.94635 138.124 6.60791C138.414 6.22113 138.559 5.83434 138.559 5.35086C138.559 4.91573 138.414 4.52894 138.172 4.19051C137.882 3.75537 137.495 3.46528 137.06 3.27189C136.528 2.9818 135.948 2.88511 135.368 2.88511H131.983V15.3106C131.983 15.5523 131.79 15.7941 131.5 15.7941H130.533C130.291 15.7941 130.05 15.6007 130.05 15.3106V1.43466C130.05 1.19292 130.243 0.95118 130.533 0.95118H135.368C136.045 0.95118 136.722 1.04788 137.35 1.28962C137.979 1.53136 138.51 1.82145 138.994 2.25658C139.429 2.64337 139.816 3.12685 140.058 3.65868C140.299 4.19051 140.444 4.72234 140.444 5.30251C140.444 6.17278 140.154 6.9947 139.622 7.67157C139.139 8.3001 138.51 8.83193 137.785 9.17037C137.35 9.36376 136.867 9.5088 136.335 9.6055C136.19 9.6055 136.045 9.65385 135.9 9.65385L140.299 14.9721C140.396 15.1172 140.444 15.3106 140.348 15.4556C140.251 15.6007 140.106 15.7457 139.913 15.7457H138.656C138.51 15.7457 138.365 15.6974 138.269 15.5523L132.515 8.54184C132.419 8.3968 132.37 8.2034 132.467 8.05836C132.564 7.91331 132.709 7.76827 132.902 7.76827H134.594C135.465 7.81662 136.335 7.76827 137.06 7.47818ZM125.215 7.57488C125.94 7.91331 126.52 8.3968 127.004 9.02532C127.535 9.7022 127.777 10.5241 127.777 11.346C127.777 11.9262 127.632 12.458 127.39 12.9899C127.149 13.5217 126.762 14.0052 126.327 14.392C125.843 14.8271 125.263 15.1172 124.683 15.3589C124.054 15.6007 123.377 15.6974 122.701 15.6974H117.624C117.479 15.6974 117.382 15.649 117.286 15.5523C117.189 15.4556 117.141 15.3589 117.141 15.2139V1.38631C117.141 1.14457 117.334 0.902832 117.624 0.902832H121.589C122.846 0.902832 124.054 1.24127 125.021 2.11154C125.408 2.49832 125.747 2.88511 125.94 3.36859C126.133 3.85207 126.278 4.33555 126.278 4.86738C126.278 5.49591 126.133 6.12443 125.843 6.65626C125.65 7.04305 125.456 7.33314 125.215 7.57488ZM108.293 10.1373L104.183 15.7941C104.038 15.9391 103.845 16.0358 103.651 15.9875C103.458 15.9391 103.313 15.7457 103.313 15.5523V1.43466C103.313 1.19292 103.506 0.95118 103.797 0.95118H104.763C105.005 0.95118 105.247 1.14457 105.247 1.43466V11.1043L112.451 1.14457C112.548 1.04788 112.693 0.95118 112.838 0.95118H114.046C114.24 0.95118 114.385 1.04788 114.481 1.19292C114.578 1.33797 114.53 1.53136 114.433 1.6764L109.453 8.54184L114.868 14.9721C114.965 15.1172 115.013 15.3106 114.917 15.4556C114.82 15.649 114.675 15.7457 114.481 15.7457H113.224C113.079 15.7457 112.934 15.6974 112.886 15.6007L108.293 10.1373Z" fill="white"/>
<path fill-rule="evenodd" clip-rule="evenodd" d="M82.3838 0.467773H98.1398L82.3838 16.0003V0.467773Z" fill="#F7A500"/>
<path fill-rule="evenodd" clip-rule="evenodd" d="M82.3838 0.467773L98.028 16.0003H82.3838V0.467773Z" fill="#1068B1"/>
<path fill-rule="evenodd" clip-rule="evenodd" d="M90.2618 8.23402L82.3838 16.0003V0.467773L90.2618 8.23402Z" fill="#2DA337"/>
</svg>
