<svg width="41" height="598" viewBox="0 0 41 598" fill="none" xmlns="http://www.w3.org/2000/svg">
<path d="M0.387904 38.5558C4.55162 43.9181 10.2294 46.6309 15.5918 46.6309C23.793 46.6309 32.8775 41.8994 33.256 33.2565C33.7607 22.2795 25.8118 19.5037 17.8629 18.0527C14.3931 17.2956 12.0589 16.0339 11.9327 13.8889C12.122 8.71585 20.134 8.52659 24.8024 13.5104L32.1835 7.83264C27.5782 2.21794 22.342 0.703858 16.9166 0.703858C8.71533 0.703858 0.766423 5.30918 0.766423 14.0782C0.766423 22.5949 7.32742 27.1371 14.5193 28.2727C18.1783 28.7774 22.2789 30.2284 22.1528 32.7518C21.8373 37.5464 11.9958 37.2941 7.51668 31.8686L0.387904 38.5558ZM1.46038 169.301C1.46038 179.521 10.7341 184.631 20.0078 184.631C29.2815 184.631 38.4922 179.521 38.4922 169.301V154.034C38.4922 143.814 29.2185 138.704 19.9447 138.704C10.671 138.704 1.46038 143.751 1.46038 154.034V169.301ZM12.7529 154.034C12.7529 150.753 16.2857 148.987 19.8186 148.987C23.4776 148.987 27.1997 150.564 27.1997 154.034V169.301C27.1997 172.518 23.6038 174.158 20.0078 174.158C16.4119 174.158 12.7529 172.581 12.7529 169.301V154.034ZM34.9593 290.961C35.2117 282.445 28.9661 277.335 20.4494 277.335H2.53285V322H20.7649C30.6694 322 35.5271 317.647 36.6627 310.455C37.2304 307.048 36.4734 301.308 30.354 298.216C33.5714 296.576 34.8962 292.98 34.9593 290.961ZM13.8884 294.81V286.861H20.4494C26.1272 286.861 25.938 294.81 20.4494 294.81H13.8884ZM13.8884 312.095V302.948H20.4494C27.1366 302.948 27.2628 312.095 20.4494 312.095H13.8884ZM26.3165 460H40.3848L28.2091 444.67C33.6345 442.967 36.9781 438.298 36.9781 430.034C36.7258 419.562 29.597 415.335 20.3863 415.335H2.53285V460H13.9515V445.806H15.9703L26.3165 460ZM13.9515 436.09V425.87H20.5756C27.7044 425.87 27.7044 436.09 20.5756 436.09H13.9515ZM13.9515 563.933H33.6345V553.335H2.53285V598H33.6345V587.338H13.9515V580.651H32.0574V570.873H13.9515V563.933Z" fill="#F7F7F9"/>
</svg>
